<?xml version="1.0" standalone="no"?>
<!DOCTYPE svg PUBLIC "-//W3C//DTD SVG 20010904//EN"
 "http://www.w3.org/TR/2001/REC-SVG-20010904/DTD/svg10.dtd">
<svg version="1.0" xmlns="http://www.w3.org/2000/svg"
 width="800.000000pt" height="800.000000pt" viewBox="0 0 800.000000 800.000000"
 preserveAspectRatio="xMidYMid meet">
<metadata>
Created by potrace 1.11, written by Peter Selinger 2001-2013
</metadata>
<g transform="translate(0.000000,800.000000) scale(0.100000,-0.100000)"
fill="#000000" stroke="none">
<path d="M3737 7554 c-1 -1 -33 -4 -72 -8 -70 -6 -222 -38 -260 -55 -11 -5
-36 -15 -55 -22 -44 -15 -193 -89 -200 -98 -3 -4 -23 -18 -45 -31 -76 -47
-260 -216 -274 -252 -2 -6 -11 -18 -20 -28 -43 -46 -74 -98 -133 -220 -55
-116 -78 -180 -94 -265 -2 -11 -6 -33 -10 -48 -3 -16 -7 -50 -9 -77 -1 -26 -5
-52 -7 -57 -7 -13 -1 -4770 6 -4839 8 -89 45 -237 76 -309 39 -91 83 -173 132
-246 57 -86 192 -232 257 -279 19 -14 39 -30 45 -35 18 -18 177 -109 194 -111
8 -2 18 -7 21 -12 9 -13 190 -73 266 -88 10 -2 37 -7 60 -11 52 -10 704 -10
770 -1 102 16 234 54 330 98 39 17 71 31 73 30 1 0 8 4 15 10 6 6 46 32 87 59
41 26 87 59 101 72 15 13 44 40 65 59 22 19 66 67 98 105 81 98 86 104 86 113
0 5 8 17 18 28 36 39 137 265 125 278 -4 3 -1 6 4 6 9 0 26 56 28 95 0 6 3 15
7 20 3 6 10 35 14 65 10 65 11 4937 1 4995 -10 58 -27 138 -34 155 -4 8 -7 17
-7 20 -5 29 -52 150 -58 150 -5 0 -8 7 -8 15 0 20 -89 169 -141 236 -40 52
-159 173 -210 214 -90 72 -282 178 -354 195 -5 1 -26 8 -45 15 -61 21 -104 33
-145 40 -22 3 -56 8 -75 11 -31 5 -618 13 -623 8z"/>
</g>
</svg>
